<svg xmlns="http://www.w3.org/2000/svg" width="1200" height="800" viewBox="0 0 1200 800">
  <defs>
    <linearGradient id="sky" x1="0" y1="0" x2="0" y2="1">
      <stop offset="0%" stop-color="#f8f2ff"/>
      <stop offset="100%" stop-color="#f0fff0"/>
    </linearGradient>
    <linearGradient id="path" x1="0" y1="0" x2="1" y2="1">
      <stop offset="0%" stop-color="#f5e3d9"/>
      <stop offset="100%" stop-color="#fff5ee"/>
    </linearGradient>
    <radialGradient id="flowerGlow" cx="50%" cy="50%" r="50%">
      <stop offset="0%" stop-color="#ffe2f0" stop-opacity="0.9"/>
      <stop offset="100%" stop-color="#f8f2ff" stop-opacity="0"/>
    </radialGradient>
  </defs>
  <rect width="1200" height="800" fill="url(#sky)" />
  <path d="M0 620 C300 620 400 740 600 740 C800 740 900 620 1200 620 L1200 800 L0 800 Z" fill="url(#path)" />
  <path d="M150 700 C250 680 300 580 380 520 C470 440 520 430 580 500 C640 570 700 620 840 580 C920 560 980 500 1100 520" stroke="#f3c6d4" stroke-width="12" fill="none" opacity="0.45" />
  <g fill="#ffc7e1" opacity="0.9">
    <circle cx="220" cy="130" r="28"/>
    <circle cx="280" cy="90" r="18"/>
    <circle cx="360" cy="160" r="22"/>
    <circle cx="780" cy="80" r="28"/>
    <circle cx="840" cy="130" r="20"/>
    <circle cx="930" cy="110" r="24"/>
    <circle cx="1020" cy="150" r="20"/>
    <circle cx="640" cy="220" r="26"/>
    <circle cx="540" cy="100" r="18"/>
    <circle cx="120" cy="230" r="20"/>
  </g>
  <g fill="#ffffff" opacity="0.75">
    <circle cx="200" cy="170" r="12"/>
    <circle cx="240" cy="110" r="10"/>
    <circle cx="860" cy="90" r="14"/>
    <circle cx="920" cy="140" r="10"/>
    <circle cx="70" cy="210" r="8"/>
    <circle cx="520" cy="140" r="12"/>
    <circle cx="740" cy="190" r="10"/>
  </g>
  <g fill="#d8a3b9" opacity="0.85">
    <path d="M180 140 c-6 -10 10 -30 22 -18 c10 10 -2 26 -12 28 c-6 2 -10 -2 -10 -10z"/>
    <path d="M840 90 c-8 -12 12 -32 24 -18 c10 10 -4 26 -14 28 c-8 2 -12 -2 -10 -10z"/>
    <path d="M520 220 c-8 -14 16 -36 26 -18 c10 16 -6 28 -16 30 c-8 2 -14 -2 -10 -12z"/>
  </g>
  <circle cx="500" cy="260" r="70" fill="url(#flowerGlow)"/>
</svg>
